<svg width="36" height="36" viewBox="0 0 36 36" fill="none" xmlns="http://www.w3.org/2000/svg">
<g id="ai">
<path id="Rectangle 9" d="M0 16C0 8.45753 0 4.68629 2.34315 2.34315C4.68629 0 8.45753 0 16 0H20C27.5425 0 31.3137 0 33.6569 2.34315C36 4.68629 36 8.45753 36 16V20C36 27.5425 36 31.3137 33.6569 33.6569C31.3137 36 27.5425 36 20 36H16C8.45753 36 4.68629 36 2.34315 33.6569C0 31.3137 0 27.5425 0 20V16Z" fill="#0062A6"/>
<path id="Vector" d="M17.1837 10.2891C15.473 10.2891 13.9532 11.3758 13.4235 12.9798C12.8798 13.0904 12.3663 13.3139 11.917 13.6355C11.4678 13.9571 11.0931 14.3694 10.8179 14.845C9.95998 16.3079 10.1559 18.147 11.3053 19.4009C10.9504 20.4512 11.0722 21.6005 11.6389 22.5515C12.4916 24.0196 14.2073 24.772 15.8862 24.4219C16.2538 24.8312 16.7056 25.1584 17.2116 25.3819C17.7175 25.6053 18.2659 25.7198 18.8202 25.7176C20.5308 25.7176 22.0506 24.6309 22.5803 23.0269C23.6819 22.8022 24.6299 22.1229 25.1806 21.1617C26.0438 19.6988 25.8479 17.8597 24.6988 16.6058V16.6006C24.874 16.0815 24.935 15.5314 24.8774 14.9872C24.8199 14.443 24.6452 13.9171 24.3651 13.4449C23.5122 11.982 21.7963 11.2294 20.1229 11.5795C19.7536 11.1712 19.3005 10.8451 18.7938 10.6226C18.2871 10.4002 17.7383 10.2865 17.1837 10.2891ZM17.1837 11.2923L17.1784 11.2975C17.8669 11.2975 18.5289 11.5326 19.0585 11.9664C19.0373 11.9768 18.9949 12.0029 18.9632 12.0186L15.8493 13.7898C15.6903 13.8786 15.595 14.0458 15.595 14.2287V18.3875L14.2552 17.6248V14.1869C14.2549 13.42 14.5631 12.6844 15.1122 12.1416C15.6613 11.5989 16.4064 11.2935 17.1837 11.2923ZM20.9348 12.5031C21.4508 12.5021 21.958 12.6356 22.405 12.8899C22.852 13.1443 23.223 13.5106 23.4805 13.9518C23.8194 14.537 23.9465 15.2214 23.8299 15.8849C23.8087 15.8692 23.7665 15.8484 23.7398 15.8327L20.6259 14.0562C20.5476 14.0125 20.4591 13.9895 20.3691 13.9895C20.2791 13.9895 20.1907 14.0125 20.1123 14.0562L16.4634 16.1356V14.6099L19.4768 12.8909C19.9198 12.6375 20.4227 12.5037 20.9348 12.5029V12.5031ZM13.233 14.0823V17.7344C13.233 17.9173 13.3283 18.0793 13.4873 18.1733L17.1307 20.2475L15.7855 21.0154L12.7774 19.3017C12.1052 18.9173 11.615 18.2855 11.4144 17.545C11.2139 16.8044 11.3194 16.0156 11.7078 15.3517C12.0504 14.7658 12.59 14.3169 13.233 14.0823ZM20.2129 14.9861L23.2262 16.6998C24.6297 17.4992 25.1061 19.2652 24.2959 20.6498L24.3011 20.655C23.957 21.2402 23.4167 21.6895 22.7759 21.9194V18.2672C22.7759 18.0843 22.6806 17.9171 22.5216 17.8284L18.8729 15.7488L20.2129 14.9861ZM17.9992 16.2453L19.5351 17.1231V18.8733L17.9992 19.751L16.4634 18.8733V17.1231L17.9992 16.2453ZM20.4141 17.6248L21.7539 18.3875V21.8202C21.7539 23.419 20.4405 24.7147 18.8254 24.7147V24.7096C18.1422 24.7096 17.4749 24.4744 16.9506 24.0409C16.9718 24.0305 17.0195 24.0042 17.0459 23.9885L20.1598 22.2173C20.3188 22.1285 20.4193 21.9613 20.4139 21.7784L20.4141 17.6248ZM19.5402 19.8713V21.3968L16.5269 23.1106C15.1234 23.9048 13.3334 23.4346 12.5231 22.0551H12.5284C12.1842 21.4751 12.0622 20.7855 12.1788 20.122C12.2 20.1377 12.2424 20.1585 12.2689 20.1742L15.3828 21.9507C15.4611 21.9944 15.5496 22.0174 15.6396 22.0174C15.7296 22.0174 15.818 21.9944 15.8964 21.9507L19.5402 19.8713Z" fill="white"/>
</g>
</svg>
