<svg width="24" height="24" viewBox="0 0 24 24" fill="none" xmlns="http://www.w3.org/2000/svg">
<g id="Bell">
<g id="Group">
<path id="Vector" d="M2.73592 13.8774L2.81698 13.8618V13.7792V8.78539C2.81698 3.99247 6.92248 0.1 12 0.1C17.0776 0.1 21.183 3.99339 21.183 8.78539V13.779V13.8616L21.2641 13.8772C22.7737 14.1676 23.9 15.4254 23.9 16.9279V17.358C23.9 18.3654 23.0377 19.1857 21.9616 19.1857H2.03836C0.962478 19.1857 0.1 18.3627 0.1 17.358V16.9279C0.1 15.4269 1.22813 14.1683 2.73592 13.8774ZM2.16415 17.1429V17.2429H2.26415H21.7358H21.8358V17.1429V16.9279C21.8358 16.2748 21.2796 15.7571 20.5996 15.7571C19.7761 15.7571 19.1189 15.1229 19.1189 14.3602V8.78539C19.1189 5.05614 15.927 2.04286 12 2.04286C8.07291 2.04286 4.88113 5.05533 4.88113 8.78539V14.3602C4.88113 15.1262 4.22052 15.7571 3.4004 15.7571C2.72294 15.7571 2.16415 16.2767 2.16415 16.9279V17.1429ZM16.2006 20.0286C16.1445 22.1709 14.2904 23.9 12 23.9C9.70964 23.9 7.85554 22.1709 7.79942 20.0286H9.86481C9.91981 21.1071 10.8596 21.9571 12 21.9571C13.1404 21.9571 14.0802 21.1071 14.1352 20.0286H16.2006Z" fill="#232E3C" stroke="white" stroke-width="0.2"/>
</g>
<circle id="Ellipse 7" cx="20" cy="6" r="4" fill="#E03232"/>
</g>
</svg>
