<svg width="15" height="12" viewBox="0 0 15 12" fill="none" xmlns="http://www.w3.org/2000/svg">
<path id="Union" fill-rule="evenodd" clip-rule="evenodd" d="M2.66016 0.152344H13.1601C13.6243 0.152344 14.0694 0.336718 14.3976 0.664907C14.7258 0.993096 14.9101 1.43821 14.9101 1.90234V2.48568C14.9107 2.59086 14.8842 2.69442 14.8331 2.78638C14.782 2.87833 14.7081 2.95558 14.6185 3.01068L8.20182 6.51067C8.11228 6.55781 8.01095 6.57811 7.91015 6.56901C7.80935 6.57811 7.70809 6.55781 7.61849 6.51067L1.20183 3.01068C1.11223 2.95558 1.03832 2.87833 0.987235 2.78638C0.93615 2.69442 0.909607 2.59086 0.910165 2.48568V1.90234C0.910165 1.43821 1.09454 0.993096 1.42273 0.664907C1.75091 0.336718 2.19604 0.152344 2.66016 0.152344ZM7.91014 7.73566C8.20047 7.74838 8.48706 7.66648 8.72681 7.50233L14.9101 4.17733V10.069C14.9101 10.5331 14.7257 10.9782 14.3976 11.3064C14.0694 11.6346 13.6243 11.819 13.1601 11.819H2.66015C2.19603 11.819 1.75091 11.6346 1.42272 11.3064C1.09453 10.9782 0.910156 10.5331 0.910156 10.069V4.17733L7.09348 7.50233C7.33329 7.66648 7.61982 7.74838 7.91014 7.73566Z" fill="#4D5763"/>
</svg>
