<svg width="20" height="14" viewBox="0 0 20 14" fill="none" xmlns="http://www.w3.org/2000/svg">
<path id="Union" fill-rule="evenodd" clip-rule="evenodd" d="M0 1C0 0.447715 0.447715 0 1 0H19C19.5523 0 20 0.447715 20 1C20 1.55228 19.5523 2 19 2H1C0.447715 2 0 1.55228 0 1ZM3 7C3 6.44772 3.44772 6 4 6H16C16.5523 6 17 6.44772 17 7C17 7.55228 16.5523 8 16 8H4C3.44772 8 3 7.55228 3 7ZM8 12C7.44772 12 7 12.4477 7 13C7 13.5523 7.44772 14 8 14H12C12.5523 14 13 13.5523 13 13C13 12.4477 12.5523 12 12 12H8Z" fill="#45B6B8"/>
</svg>
