<svg width="32" height="32" viewBox="0 0 32 32" fill="none" xmlns="http://www.w3.org/2000/svg">
<g id="Phone">
<rect id="Phone BG" width="32" height="32" rx="8" fill="#EBEEF3"/>
<path id="Vector" d="M16.4102 8.98633C14.9515 8.98633 13.5525 9.55337 12.5211 10.5627C11.4896 11.5721 10.9102 12.941 10.9102 14.3684C10.9102 18.2038 15.8997 23.9863 16.4102 23.9863C16.9206 23.9863 21.9102 18.2038 21.9102 14.3684C21.9102 13.6617 21.7679 12.9618 21.4915 12.3088C21.2151 11.6558 20.81 11.0625 20.2992 10.5627C19.7885 10.0629 19.1822 9.66649 18.5149 9.39602C17.8476 9.12554 17.1324 8.98633 16.4102 8.98633ZM16.4102 17.1245C15.8531 17.1245 15.3086 16.9629 14.8454 16.6601C14.3822 16.3572 14.0213 15.9268 13.8081 15.4232C13.5949 14.9196 13.5391 14.3654 13.6478 13.8308C13.7565 13.2961 14.0247 12.805 14.4186 12.4196C14.8125 12.0341 15.3143 11.7717 15.8607 11.6653C16.407 11.559 16.9733 11.6135 17.488 11.8221C18.0026 12.0307 18.4425 12.384 18.7519 12.8372C19.0614 13.2905 19.2266 13.8233 19.2266 14.3684C19.2266 14.7304 19.1538 15.0888 19.0122 15.4232C18.8707 15.7575 18.6632 16.0614 18.4017 16.3173C18.1402 16.5732 17.8297 16.7762 17.488 16.9148C17.1463 17.0533 16.78 17.1245 16.4102 17.1245Z" fill="#4D5763"/>
</g>
</svg>
