<svg width="189" height="42" viewBox="0 0 189 42" fill="none" xmlns="http://www.w3.org/2000/svg">
<g id="Logo">
<g id="Logo Shape">
<path id="Path" fill-rule="evenodd" clip-rule="evenodd" d="M0 0L0.0131419 20.9742L0.0262805 42H0.431995C1.92572 41.0937 3.01198 40.4299 3.69079 40.0084C3.95647 39.8435 4.39449 39.5823 4.75602 39.3734C4.86553 39.3101 5.85301 38.7189 7.27678 37.8643C10.3411 36.0248 12.0465 34.8917 13.7133 33.5878C15.2973 32.3487 16.9254 30.8406 17.5268 30.0556C18.6716 28.5612 18.7038 27.3634 17.6237 26.4461C17.0471 25.9564 16.2438 25.5764 14.5796 25.0064C13.4009 24.6026 12.6545 24.3196 12.2239 24.1133C12.0511 24.0304 11.7331 23.8867 11.5171 23.794C11.3012 23.7012 10.7781 23.4529 10.3546 23.2423C7.8774 22.0102 6.86165 20.813 6.85877 19.1222C6.85531 17.0831 8.36127 15.2677 11.5189 13.5045C12.7163 12.8358 14.5881 11.9985 17.1448 10.9876C17.6055 10.8055 18.0295 10.6348 18.0871 10.6085C18.2487 10.5344 19.519 10.0518 20.9925 9.50472C21.7267 9.23212 22.4099 8.97621 22.5107 8.93603C22.6115 8.89581 23.0119 8.74805 23.4006 8.60766C24.7806 8.10917 26.8323 7.36038 27.0128 7.2893C27.1136 7.24965 27.3492 7.16112 27.5363 7.09257C27.7235 7.02402 28.065 6.89665 28.2954 6.80951C28.5257 6.72232 28.9969 6.54494 29.3424 6.41526C29.6879 6.28558 30.0615 6.13813 30.1725 6.08755L30.3744 5.99567L29.8061 5.46149C27.955 3.72185 25.6788 2.287 23.3221 1.37423C22.3603 1.00172 22.001 0.887227 20.7308 0.548652C20.1107 0.383433 18.4994 0.123502 17.5374 0.0336309C17.4702 0.0273476 17.0907 0.0161373 16.3988 0C5.47506 0.0171674 0.00879483 0.0171674 0 0Z" fill="#2560A1"/>
<path id="Path_2" fill-rule="evenodd" clip-rule="evenodd" d="M26.8923 8.43902C26.6703 8.55619 26.3177 8.74247 26.109 8.853C25.5626 9.14218 24.1855 9.92872 23.6355 10.2657C23.3763 10.4245 23.0942 10.5932 23.0086 10.6406C22.7515 10.7829 20.0878 12.5004 19.9186 12.633C19.8683 12.6724 19.3927 13.0015 18.8978 13.3393C16.4243 15.0275 15.5897 15.7791 15.1457 16.7179C14.8024 17.444 14.8501 18.1495 15.2846 18.7708C15.673 19.3262 16.348 19.8306 17.3534 20.3168C17.8738 20.5684 20.3976 21.4787 20.5991 21.5536C23.7923 22.74 25.7278 24.364 26.3033 26.3394C26.5229 27.0936 26.5036 28.2237 26.2608 28.8152C25.576 30.4834 24.8777 31.7842 23.8416 33.3216C23.2624 34.1809 22.158 35.6008 21.5986 36.2054C20.2084 37.7079 18.3163 39.3936 16.8868 40.4032C16.8066 40.4598 16.655 40.5727 16.5499 40.6539C16.4448 40.7352 16.2763 40.8562 16.1756 40.9227C16.0748 40.9893 15.8039 41.1734 15.5735 41.3321C15.3432 41.4906 15.0781 41.6675 14.9846 41.725C14.891 41.7825 14.8145 41.8542 14.8145 41.8843C14.8145 41.9224 15.317 41.9283 16.4766 41.9039C18.5631 41.8599 19.5831 41.7691 20.9062 41.5097C21.6146 41.3708 22.9486 41.0386 23.1643 40.9473C23.2219 40.923 23.4575 40.8394 23.6878 40.7616C25.1674 40.2618 26.7097 39.4763 28.0432 38.5435C28.5533 38.1866 28.7669 38.0213 29.3667 37.5192C29.4681 37.4344 29.8461 37.0751 30.2067 36.721C31.2591 35.6872 32.0015 34.7432 32.9205 33.2701C33.8238 31.8221 34.7503 29.5369 35.2278 27.5791C35.3177 27.2109 35.4143 26.8169 35.4424 26.7036C35.5137 26.4173 35.6349 25.6809 35.7263 24.9783C35.7687 24.6525 35.8276 24.2238 35.8572 24.0255C36.0181 22.9495 36.0503 19.8513 35.9125 18.695C35.7693 17.4925 35.6946 16.9529 35.6523 16.8152C35.6262 16.7302 35.5893 16.5564 35.5704 16.4289C35.4637 15.7105 35.0738 14.286 34.6964 13.2358C34.5794 12.91 34.453 12.574 34.4156 12.489C34.3782 12.404 34.2848 12.1838 34.2081 11.9997C33.7979 11.0159 32.9539 9.40526 32.5079 8.75509C32.4593 8.68428 32.3049 8.45252 32.1647 8.24007C31.8498 7.76259 30.9287 6.53885 30.8889 6.54494C30.8729 6.54761 30.636 6.6502 30.3625 6.77298C29.1489 7.31793 27.6845 8.02103 26.8923 8.43902Z" fill="#62B4B7"/>
</g>
<g id="Name">
<path id="Path_3" fill-rule="evenodd" clip-rule="evenodd" d="M101.044 14.1051C99.8172 14.3118 98.6664 14.8586 98.0512 15.527C97.4139 16.2194 97.135 16.9426 97.135 17.9031C97.135 18.7747 97.3518 19.407 97.86 20.0177C98.4722 20.7533 99.6052 21.3031 101.518 21.7931C101.894 21.8892 102.39 22.0189 102.621 22.0814C104.023 22.4608 104.537 22.8457 104.537 23.5178C104.537 24.0055 104.143 24.4379 103.521 24.633C103.158 24.7467 102.226 24.7878 101.774 24.71C100.823 24.5465 100.331 24.0777 100.166 23.1777L100.095 22.7906L98.4313 22.7767L96.7676 22.7629V23.0727C96.7676 23.7259 97.0126 24.5981 97.3651 25.1996C97.5495 25.5142 98.0363 26.0359 98.3875 26.2954C98.957 26.7161 99.7118 27.0315 100.644 27.2382C101.341 27.3927 103.2 27.4068 103.959 27.2634C106.51 26.7818 107.746 25.5508 107.925 23.3155C107.989 22.5288 107.716 21.627 107.225 20.9963C106.844 20.5061 105.759 19.8631 104.773 19.5424C104.542 19.4673 103.798 19.2657 103.119 19.0945C101.317 18.6395 101.011 18.5193 100.684 18.1375C100.529 17.9564 100.495 17.8741 100.495 17.6871C100.495 17.04 101.124 16.6225 102.1 16.6225C102.801 16.6225 103.281 16.7619 103.685 17.0828C103.95 17.2935 104.031 17.4374 104.115 17.8437L104.177 18.1463L105.84 18.1324L107.503 18.1186L107.49 17.8299C107.446 16.7783 106.897 15.7589 106.006 15.0734C104.847 14.1813 102.875 13.7966 101.044 14.1051Z" fill="#2560A1"/>
<path id="Combined-Shape" fill-rule="evenodd" clip-rule="evenodd" d="M51.1162 14.2598C54.1587 14.2614 54.7846 14.3041 55.6379 14.5515C58.4105 15.3554 59.888 17.6981 59.7415 21.0578C59.6795 22.48 59.433 23.4211 58.8601 24.4223C58.2141 25.5514 57.1028 26.4081 55.7692 26.8054C54.8023 27.0933 54.4205 27.1189 51.084 27.12L48 27.1209V14.2598L51.1162 14.2598ZM51.7828 17.1505H51.7532C51.4396 17.151 51.3485 17.1677 51.3338 17.2062C51.3236 17.2327 51.3174 17.9559 51.3167 19.0034L51.3167 19.0981C51.3166 19.114 51.3166 19.13 51.3166 19.146L51.3166 19.2924C51.3168 19.7367 51.3178 20.2283 51.3198 20.7428L51.3334 24.2075L52.4883 24.2004C53.2649 24.1957 53.5779 24.1837 53.8715 24.1317L53.8963 24.1272C53.9664 24.1142 54.0361 24.0988 54.1115 24.0807C55.5862 23.7258 56.1994 22.9568 56.3549 21.2672C56.5262 19.4044 55.9815 18.1334 54.7598 17.5458C54.1785 17.2662 53.7602 17.1961 52.476 17.1629C52.1737 17.1551 51.949 17.1507 51.7828 17.1505Z" fill="#2560A1"/>
<path id="Path_4" fill-rule="evenodd" clip-rule="evenodd" d="M61.6089 14.3028C61.5566 14.3361 61.5458 15.6544 61.5564 20.7196L61.5697 27.0944L66.7798 27.1078L71.9899 27.1212V25.6777V24.2342L68.4859 24.2207L64.9819 24.2072L64.9678 23.013L64.9536 21.8187H68.0781H71.2025V20.5064V19.194H68.0791H64.9556V18.092V16.99L68.3809 16.9765L71.8062 16.963V15.6244V14.2858L66.7404 14.2733C63.9543 14.2665 61.6451 14.2797 61.6089 14.3028Z" fill="#2560A1"/>
<path id="Combined-Shape_2" fill-rule="evenodd" clip-rule="evenodd" d="M77.4103 14.2598C77.661 14.2609 78.2225 14.265 79.0949 14.2722L80.7785 14.286L81.3981 15.9396C81.4925 16.1916 81.593 16.46 81.6926 16.7261L81.7185 16.7954C81.7228 16.807 81.7272 16.8185 81.7315 16.83L81.7573 16.8991C81.9938 17.531 82.2165 18.127 82.3305 18.4331C82.8587 19.8512 83.529 21.6492 83.8276 22.4489C83.984 22.8675 84.2432 23.5644 84.4038 23.9975C84.4121 24.0199 84.4204 24.0423 84.4287 24.0647L84.4454 24.1093C84.592 24.5034 84.7335 24.8763 84.7716 24.9686C84.8354 25.1234 84.9751 25.4955 85.1176 25.8843L85.1385 25.9413C85.3368 26.4835 85.5339 27.039 85.5339 27.0685C85.5339 27.0965 85.1817 27.1108 84.4739 27.1113L84.3907 27.1113C84.2116 27.1112 84.0114 27.1102 83.79 27.1084L82.0461 27.0946L81.8199 26.4385C81.6955 26.0776 81.5211 25.5638 81.4324 25.2967L81.271 24.8111H76.8273L76.7271 25.0867C76.6814 25.2126 76.5464 25.5924 76.4044 25.9946L76.387 26.0439C76.3754 26.0768 76.3637 26.1099 76.3521 26.1429L76.3347 26.1923C76.3289 26.2088 76.3231 26.2252 76.3173 26.2416L76.0078 27.1209H74.2877C74.2783 27.1209 74.2688 27.1209 74.2594 27.1209L74.2031 27.1208C73.296 27.1198 72.568 27.1025 72.5684 27.0815C72.5687 27.0599 72.6762 26.7587 72.8072 26.4122C72.8795 26.2208 72.9837 25.9439 73.0887 25.6639L73.1187 25.5839C73.1936 25.3839 73.2675 25.1864 73.3291 25.0211C73.4852 24.6025 73.8163 23.7166 74.0647 23.0526C74.3131 22.3885 74.6439 21.5027 74.7997 21.084C74.8828 20.8608 75.0021 20.5415 75.1242 20.2156L75.1854 20.0525C75.2718 19.8217 75.3569 19.5951 75.4288 19.4042C75.4478 19.3537 75.4667 19.3033 75.4857 19.2528L75.5142 19.1769C75.8031 18.4075 76.1148 17.5691 76.8448 15.5984C77.0677 14.9967 77.2562 14.5505 77.4103 14.2598ZM79.0044 17.9912C79.0009 18.0022 78.995 18.0204 78.9872 18.0436L78.9802 18.0647C78.9617 18.1203 78.9361 18.1963 78.9104 18.2717L78.9001 18.3018C78.8375 18.4851 78.2535 20.2948 77.6606 22.1426C77.636 22.2195 77.6296 22.2963 77.6465 22.3132C77.6628 22.3295 78.258 22.343 78.9848 22.3439L79.0345 22.3439C79.0429 22.3439 79.0512 22.3439 79.0596 22.3439L79.0922 22.3439L79.156 22.3439C80.1719 22.343 80.4419 22.3282 80.4419 22.276C80.4419 22.2387 80.3614 21.9611 80.263 21.6592C80.2026 21.474 80.1071 21.1759 80.0108 20.8732L79.9894 20.8059C79.936 20.6377 79.8832 20.4705 79.8368 20.3229C79.8244 20.2835 79.8119 20.2437 79.7994 20.2038L79.7616 20.0838C79.6483 19.7245 79.5378 19.3767 79.4956 19.2467C79.4439 19.0879 79.3379 18.7454 79.26 18.4856C79.1127 17.994 79.045 17.8631 79.0044 17.9912Z" fill="#2560A1"/>
<path id="Path_5" fill-rule="evenodd" clip-rule="evenodd" d="M86.5312 20.6911V27.1224H91.177H95.8228V25.6788V24.2352H92.8571H89.8914L89.878 19.2613L89.8646 14.2875L88.1979 14.2736L86.5312 14.2598V20.6911Z" fill="#2560A1"/>
<path id="Path_6" fill-rule="evenodd" clip-rule="evenodd" d="M108.666 14.2958C108.647 14.3152 108.631 14.9646 108.631 15.739V17.1469L110.534 17.1607L112.437 17.1745L112.45 22.1483L112.463 27.1222H114.143H115.822L115.835 22.1483L115.849 17.1745L117.753 17.1607L119.656 17.1469L119.642 15.7171L119.628 14.2873L114.165 14.2739C111.16 14.2666 108.685 14.2764 108.666 14.2958Z" fill="#2560A1"/>
<path id="Combined-Shape_3" fill-rule="evenodd" clip-rule="evenodd" d="M124.683 14.2598C128.398 14.2603 128.838 14.2903 129.665 14.5797C130.305 14.8033 130.732 15.0522 131.142 15.4407C131.548 15.824 131.796 16.2101 131.981 16.7429C132.095 17.0724 132.112 17.2148 132.116 17.8556C132.119 18.4296 132.098 18.6652 132.021 18.9318C131.884 19.4029 131.625 19.9053 131.339 20.2575C131.104 20.5455 130.372 21.084 130.215 21.084C130.173 21.084 130.307 21.1677 130.511 21.2699C130.965 21.4968 131.29 21.8406 131.543 22.3625C131.811 22.9144 131.928 23.4521 132.018 24.5441C132.023 24.6089 132.028 24.6748 132.034 24.741L132.039 24.7979C132.041 24.8168 132.042 24.8358 132.044 24.8547L132.049 24.9115C132.087 25.3369 132.129 25.7455 132.152 25.9135C132.211 26.3364 132.389 26.9433 132.468 26.9922C132.638 27.0976 132.388 27.12 130.953 27.1209L129.212 27.1209L129.132 26.9674C129.028 26.7666 128.907 26.0003 128.817 24.9734C128.698 23.6191 128.456 23.0192 127.888 22.6705C127.627 22.5103 127.282 22.4572 126.302 22.4561L126.233 22.4561C126.092 22.4563 125.938 22.4574 125.771 22.4594L124.458 22.4751L124.445 24.798L124.431 27.1209H121.072L121.072 20.4105C121.073 17.0367 121.089 14.3134 121.107 14.2948C121.126 14.2765 122.532 14.2613 124.289 14.2599L124.4 14.2598C124.419 14.2598 124.438 14.2598 124.456 14.2598L124.683 14.2598ZM124.47 17.0211C124.45 17.0418 124.433 17.6549 124.432 18.3945L124.432 19.8296L126.125 19.8137C127.748 19.7986 127.827 19.7932 128.031 19.6836C128.698 19.327 128.983 18.4136 128.639 17.7393C128.507 17.4806 128.18 17.1909 127.911 17.0942C127.694 17.0161 124.542 16.9492 124.47 17.0211Z" fill="#2560A1"/>
<path id="Path_7" fill-rule="evenodd" clip-rule="evenodd" d="M134.103 14.3028C134.051 14.3361 134.04 15.6544 134.051 20.7196L134.064 27.0944L139.274 27.1078L144.484 27.1212V25.6777V24.2342L140.954 24.2207L137.424 24.2072L137.409 23.0134L137.395 21.8196L140.533 21.806L143.67 21.7925L143.684 20.4932L143.698 19.194H140.548H137.397V18.092V16.99L140.849 16.9765L144.3 16.963V15.6244V14.2858L139.235 14.2733C136.448 14.2665 134.139 14.2797 134.103 14.3028Z" fill="#2560A1"/>
<path id="Combined-Shape_4" fill-rule="evenodd" clip-rule="evenodd" d="M150.882 14.2695C151.081 14.2697 151.315 14.2709 151.59 14.2732L153.275 14.287L153.578 15.1007C153.659 15.3184 153.767 15.6091 153.878 15.9051L153.914 16.0039C154.019 16.2838 154.122 16.5616 154.204 16.7805C154.232 16.8544 154.26 16.9297 154.288 17.0047L154.306 17.0547C154.452 17.4456 154.592 17.8213 154.643 17.9616C154.784 18.3431 155.064 19.0956 155.343 19.8393L155.371 19.9136C155.384 19.9507 155.398 19.9878 155.412 20.0248L155.44 20.0986C155.527 20.3318 155.613 20.5596 155.692 20.7701C155.882 21.2754 156.2 22.1258 156.399 22.6599C156.494 22.9136 156.618 23.2467 156.745 23.5853L156.805 23.7458C156.924 24.0664 157.042 24.3816 157.135 24.6284C157.824 26.4663 158.028 27.0256 158.028 27.0746C158.028 27.0977 157.593 27.1113 156.895 27.1119L156.787 27.1118C156.631 27.1117 156.463 27.1109 156.285 27.1095L154.542 27.0957L154.423 26.7545C154.376 26.6189 154.27 26.3133 154.158 25.9881L154.141 25.9379C154.132 25.9128 154.123 25.8876 154.114 25.8623L154.097 25.8119C154.074 25.7448 154.051 25.6779 154.028 25.6127L153.752 24.8122L151.358 24.8122C151.339 24.8122 151.319 24.8122 151.3 24.8122L151.188 24.8122C149.461 24.8132 149.321 24.8237 149.288 24.904C149.265 24.9603 149.115 25.3821 148.956 25.8305L148.936 25.8867C148.93 25.9055 148.923 25.9242 148.916 25.943L148.897 25.9993C148.744 26.4304 148.599 26.8471 148.565 26.9513L148.509 27.1219L146.757 27.1219C145.822 27.1216 145.062 27.104 145.063 27.0825C145.063 27.0609 145.17 26.7597 145.301 26.4132C145.378 26.2079 145.504 25.8713 145.636 25.5199L145.66 25.4539C145.673 25.4208 145.685 25.3877 145.698 25.3545L145.722 25.2884C145.784 25.1233 145.844 24.9605 145.9 24.8122C146.34 23.6285 146.833 22.309 147.293 21.0851C147.483 20.5798 147.77 19.8121 147.931 19.379C148.15 18.7896 148.274 18.4553 148.394 18.1339L148.41 18.0901C148.416 18.0755 148.421 18.061 148.427 18.0464L148.443 18.0025C148.531 17.7681 148.622 17.523 148.752 17.1742C148.826 16.9774 148.921 16.7236 149.017 16.4646L149.056 16.3609C149.159 16.0841 149.261 15.8094 149.339 15.5994C149.674 14.696 149.786 14.4191 149.856 14.3257C149.885 14.286 150.121 14.2699 150.826 14.2695L150.882 14.2695ZM151.497 17.9879C151.482 18.0312 151.277 18.6572 151.043 19.379C150.988 19.5482 150.929 19.7295 150.869 19.9134L150.845 19.9872C150.837 20.0118 150.829 20.0364 150.821 20.061L150.797 20.1349C150.625 20.6642 150.456 21.1845 150.361 21.4735C150.22 21.9037 150.117 22.2757 150.132 22.3003C150.147 22.3246 150.773 22.3445 151.529 22.3449L152.948 22.3449L152.922 22.2268C152.908 22.1619 152.738 21.6126 152.544 21.0063L152.528 20.9551C152.34 20.3664 152.16 19.794 152.122 19.6677C152.075 19.5085 152.017 19.3189 151.956 19.1253L151.942 19.0806C151.934 19.0582 151.927 19.0358 151.92 19.0134L151.899 18.9464L151.885 18.9018C151.742 18.4574 151.603 18.0468 151.575 17.997C151.533 17.9217 151.522 17.9204 151.497 17.9879Z" fill="#2560A1"/>
<path id="Path_8" fill-rule="evenodd" clip-rule="evenodd" d="M159.025 20.6914V27.1219H160.6H162.175L162.178 22.2793C162.181 18.9883 162.199 17.4788 162.234 17.568C162.263 17.6401 162.394 18.089 162.525 18.5654C162.655 19.0417 162.822 19.6441 162.894 19.904C162.967 20.1638 163.045 20.4473 163.067 20.5339C163.09 20.6205 163.173 20.9158 163.251 21.1901C163.328 21.4644 163.423 21.8069 163.461 21.9512C163.499 22.0956 163.593 22.4381 163.67 22.7124C163.747 22.9867 163.901 23.5418 164.012 23.946C164.123 24.3502 164.313 25.0353 164.433 25.4684C164.554 25.9015 164.703 26.4448 164.766 26.6757L164.879 27.0957L166.17 27.1097L167.461 27.1237L167.569 26.7423C167.729 26.1762 168.067 24.9562 168.345 23.946C168.479 23.4552 168.717 22.593 168.874 22.03C169.03 21.467 169.251 20.6695 169.366 20.2578C169.726 18.9588 169.988 18.0223 170.059 17.7779C170.118 17.5776 170.132 18.267 170.154 22.3187L170.18 27.0957L171.769 27.1096L173.357 27.1235L173.343 20.7053L173.33 14.2871L170.875 14.2734L168.42 14.2598L168.373 14.3784C168.347 14.4437 168.227 14.8868 168.106 15.3632C167.985 15.8396 167.797 16.5719 167.688 16.9905C167.579 17.4092 167.39 18.1415 167.267 18.6179C167.011 19.6136 166.747 20.6318 166.421 21.8833C166.285 22.4044 166.176 22.7315 166.153 22.6895C166.131 22.6506 166.068 22.4331 166.013 22.2063C165.958 21.9794 165.829 21.4749 165.727 21.0851C165.625 20.6953 165.445 20.0043 165.328 19.5496C165.211 19.0949 165.02 18.3567 164.905 17.9092C164.789 17.4617 164.602 16.7353 164.488 16.295C164.374 15.8547 164.231 15.2936 164.169 15.0482C164.108 14.8028 164.034 14.5253 164.005 14.4314L163.952 14.2608H161.489H159.025V20.6914Z" fill="#2560A1"/>
<path id="Path_9" fill-rule="evenodd" clip-rule="evenodd" d="M186.795 18.3555V19.1954H187.897H189V18.3555V17.5156H187.897H186.795V18.3555Z" fill="#51B5CB"/>
<path id="Combined-Shape_5" fill-rule="evenodd" clip-rule="evenodd" d="M181.042 19.9842C181.524 19.9214 182.536 19.9221 182.998 19.9856C184.033 20.1276 185.181 20.6904 185.181 21.6615C185.184 21.7067 185.186 21.8344 185.186 22.0443L185.186 22.1366C185.185 22.5182 185.181 23.121 185.172 23.945C185.199 26.0383 185.21 26.3458 185.292 26.6246L185.297 26.6426C185.302 26.6576 185.307 26.6726 185.312 26.6878L185.42 27.0159L184.114 27.0159C183.187 27.0155 183.183 27.0086 183.153 26.8978C183.136 26.8329 183.121 26.7207 183.12 26.6485C183.117 26.3986 183.049 26.3727 182.854 26.5479C182.628 26.7516 182.269 26.9367 181.817 27.0821C181.298 27.2489 180.299 27.2472 179.787 27.0788C179.095 26.8513 178.684 26.4289 178.497 25.7548C178.374 25.3123 178.369 25.0086 178.478 24.5825C178.728 23.6004 179.569 23.1143 181.355 22.9184C181.641 22.8872 182.077 22.8185 182.324 22.7659C182.931 22.637 183.059 22.4911 183.016 21.9801C182.999 21.7807 182.877 21.6353 182.611 21.4987C182.408 21.3945 182.288 21.3729 181.916 21.3733C181.513 21.3737 181.443 21.3889 181.239 21.5211C181.073 21.6283 180.976 21.7463 180.881 21.9537L180.75 22.2389H178.696L178.731 21.9371C178.805 21.3 179.252 20.6596 179.825 20.3693C180.198 20.1805 180.66 20.0341 181.042 19.9842ZM182.983 23.8184C182.957 23.8211 182.818 23.8583 182.674 23.9013C182.584 23.9279 182.434 23.9649 182.278 23.9992L182.226 24.0106C182.148 24.0273 182.071 24.0431 182.001 24.0562C180.972 24.2489 180.581 24.5845 180.676 25.1957C180.716 25.4499 180.769 25.5284 181.02 25.7055C181.183 25.82 181.258 25.8347 181.677 25.8338C182.084 25.833 182.178 25.8152 182.359 25.7049C182.816 25.4267 182.972 25.1009 183.005 24.356C183.009 24.2725 183.01 24.1934 183.011 24.1229L183.011 24.0932C183.01 23.928 183 23.8167 182.983 23.8184Z" fill="#51B5CB"/>
<path id="Path_10" fill-rule="evenodd" clip-rule="evenodd" d="M186.795 23.5771V27.0154H187.897H189V23.5771V20.1387H187.897H186.795V23.5771Z" fill="#51B5CB"/>
<path id="Path_11" fill-rule="evenodd" clip-rule="evenodd" d="M175.902 24.2281C175.243 24.3997 174.826 24.9178 174.826 25.5659C174.826 26.1624 175.109 26.6229 175.612 26.8453C176.123 27.0717 176.641 26.9987 177.1 26.6355C177.67 26.1845 177.717 25.1966 177.196 24.6357C176.903 24.3204 176.29 24.1272 175.902 24.2281Z" fill="#51B5CB"/>
</g>
</g>
</svg>
