<svg width="32" height="32" viewBox="0 0 32 32" fill="none" xmlns="http://www.w3.org/2000/svg">
<g id="Phone">
<rect id="Phone BG" width="32" height="32" rx="8" fill="#EBEEF3"/>
<path id="Phone_2" d="M19.8211 18.1699C21.144 18.5997 22.1145 19.4189 22.7432 20.6148C22.9714 21.0489 22.9627 21.5838 22.7354 22.0185C22.5968 22.2835 22.4517 22.5442 22.3002 22.8004C21.7416 23.7446 20.6688 24.1917 19.6626 23.896C17.3495 23.2161 15.0002 21.769 12.9899 19.6151C10.9796 17.4613 9.62908 14.9441 8.99449 12.4659C8.71844 11.3878 9.13577 10.2384 10.017 9.63988C10.2562 9.47748 10.4995 9.32211 10.7468 9.17359C11.1525 8.93001 11.6518 8.92075 12.0569 9.16525C13.1731 9.83882 13.9377 10.8787 14.3388 12.296C14.467 12.749 14.3744 13.2421 14.0949 13.6087L13.4191 14.4948C13.0497 14.9792 13.0159 15.6676 13.3415 16.1868C14.1045 17.4033 15.0543 18.421 16.1897 19.2385C16.6743 19.5874 17.3168 19.5511 17.7689 19.1554L18.596 18.4313C18.9381 18.1318 19.3983 18.0326 19.8211 18.1699Z" fill="#4D5763"/>
</g>
</svg>
