<svg width="24" height="24" viewBox="0 0 24 24" fill="none" xmlns="http://www.w3.org/2000/svg">
<g id="Refresh">
<path id="Union" fill-rule="evenodd" clip-rule="evenodd" d="M4 9H9C9.26522 9 9.51957 8.89464 9.70711 8.70711C9.89464 8.51957 10 8.26522 10 8C10 7.73478 9.89464 7.48043 9.70711 7.29289C9.51957 7.10536 9.26522 7 9 7H5.75269C6.63042 5.90271 7.7881 5.04824 9.11617 4.535C10.9417 3.82951 12.9624 3.81766 14.7961 4.50168C16.6297 5.1857 18.149 6.51814 19.0665 8.24685C19.9839 9.97555 20.2359 11.9806 19.7747 13.8825C19.3134 15.7845 18.171 17.4514 16.5636 18.5678C14.9562 19.6842 12.9953 20.1727 11.052 19.9408C9.10872 19.7089 7.31786 18.7727 6.01831 17.3093C4.71877 15.846 4.0007 13.9571 4 12C4 11.7348 3.89464 11.4804 3.70711 11.2929C3.51957 11.1054 3.26522 11 3 11C2.73478 11 2.48043 11.1054 2.29289 11.2929C2.10536 11.4804 2 11.7348 2 12C2 14.6522 3.05357 17.1957 4.92893 19.0711C5.85752 19.9997 6.95991 20.7362 8.17317 21.2388C9.38642 21.7413 10.6868 22 12 22C13.7749 21.999 15.5176 21.5256 17.0491 20.6284C18.5806 19.7312 19.8457 18.4426 20.7145 16.8948C21.5833 15.347 22.0245 13.5959 21.9928 11.8213C21.961 10.0466 21.4575 8.31236 20.534 6.79663C19.6104 5.2809 18.3001 4.0383 16.7375 3.19643C15.1749 2.35456 13.4164 1.94375 11.6426 2.00619C9.86871 2.06864 8.14346 2.60208 6.64394 3.55175C6.04937 3.9283 5.49879 4.36491 5 4.85305V3C5 2.73478 4.89464 2.48043 4.70711 2.29289C4.51957 2.10536 4.26522 2 4 2C3.73478 2 3.48043 2.10536 3.29289 2.29289C3.10536 2.48043 3 2.73478 3 3V7.80917C2.99754 7.84965 2.99753 7.8903 3 7.93088V8C3 8.26522 3.10536 8.51957 3.29289 8.70711C3.48043 8.89464 3.73478 9 4 9Z" fill="#45B6B8"/>
</g>
</svg>
