<svg width="16" height="16" viewBox="0 0 16 16" fill="none" xmlns="http://www.w3.org/2000/svg">
<g id="Search" clip-path="url(#clip0_4310_28331)">
<path id="Search_2" d="M6.84293 2.27963C9.35059 2.27963 11.412 4.3249 11.412 6.86019C11.412 7.81891 11.1145 8.71372 10.5619 9.502L10.1156 10.1411L9.4781 10.5885C8.6918 11.1425 7.79924 11.4407 6.84293 11.4407C4.33527 11.4407 2.27389 9.39547 2.27389 6.86019C2.27389 4.3249 4.33527 2.27963 6.84293 2.27963ZM6.84293 0C3.06019 0 0 3.06791 0 6.86019C0 10.6525 3.06019 13.7204 6.84293 13.7204C8.30927 13.7204 9.66936 13.2517 10.7957 12.4421L14.0046 15.6591C14.2171 15.8722 14.5147 16 14.8122 16C15.1097 16 15.4072 15.8935 15.6197 15.6591L15.641 15.6378C16.0873 15.1904 16.151 14.4447 15.641 14.0186L12.432 10.8229C13.2183 9.69374 13.7071 8.33023 13.7071 6.86019C13.6859 3.06791 10.6257 0 6.84293 0Z" fill="#7D8A8D"/>
</g>
<defs>
<clipPath id="clip0_4310_28331">
<rect width="16" height="16" fill="white"/>
</clipPath>
</defs>
</svg>
