<svg width="13" height="16" viewBox="0 0 13 16" fill="none" xmlns="http://www.w3.org/2000/svg">
<g id="Group">
<path id="Vector" d="M8.89705 3.53947C8.89705 4.68741 7.99728 5.59261 6.91825 5.59261C5.83922 5.59261 4.93945 4.68741 4.93945 3.53947C4.93945 2.39152 5.83922 1.48633 6.91825 1.48633C7.99728 1.48633 8.89705 2.39152 8.89705 3.53947Z" stroke="#4D5763" stroke-miterlimit="10" stroke-linecap="round" stroke-linejoin="round"/>
<g id="Group_2">
<path id="Vector_2" d="M12.3389 11.8219L6.91799 15.3884L1.48146 11.8214C2.16869 9.38011 4.34426 7.60809 6.90051 7.60742C9.47755 7.6229 11.6525 9.38436 12.3389 11.8219Z" stroke="#4D5763" stroke-miterlimit="10" stroke-linecap="round" stroke-linejoin="round"/>
<g id="Group_3">
<path id="Vector_3" d="M6.90908 9.80067L7.20704 11.5622L6.91348 11.919L6.61161 11.5593L6.90908 9.80067Z" stroke="#4D5763" stroke-miterlimit="10" stroke-linecap="round" stroke-linejoin="round"/>
<g id="Vector_4">
<mask id="path-4-inside-1_4310_28577" fill="white">
<path d="M7.60851 8.98633H6.41016L5.91016 7.98633H8.06063L7.60851 8.98633Z"/>
</mask>
<path d="M7.60851 8.98633V9.98633C8.00139 9.98633 8.35786 9.75628 8.51971 9.3983L7.60851 8.98633ZM6.41016 8.98633L5.51573 9.43354C5.68512 9.77233 6.03138 9.98633 6.41016 9.98633V8.98633ZM5.91016 7.98633V6.98633C5.56358 6.98633 5.24171 7.16578 5.05951 7.4606C4.8773 7.75541 4.86073 8.12355 5.01573 8.43354L5.91016 7.98633ZM8.06063 7.98633L8.97183 8.3983C9.11175 8.08882 9.08503 7.72947 8.90086 7.4441C8.7167 7.15872 8.40028 6.98633 8.06063 6.98633V7.98633ZM7.60851 7.98633H6.41016V9.98633H7.60851V7.98633ZM7.30458 8.53911L6.80458 7.53911L5.01573 8.43354L5.51573 9.43354L7.30458 8.53911ZM5.91016 8.98633H8.06063V6.98633H5.91016V8.98633ZM7.14944 7.57436L6.69732 8.57436L8.51971 9.3983L8.97183 8.3983L7.14944 7.57436Z" fill="#4D5763" mask="url(#path-4-inside-1_4310_28577)"/>
</g>
</g>
</g>
</g>
</svg>
